<svg width="123" height="92" viewBox="0 0 123 92" fill="none" xmlns="http://www.w3.org/2000/svg">
<ellipse cx="53.6707" cy="30.7052" rx="23.1441" ry="24.4221" fill="#013878"/>
<rect x="17.0083" y="8.95715" width="7.11884" height="46.3733" fill="#013878"/>
<rect x="34.9998" y="55" width="88" height="36" rx="6.40593" fill="#FD7900"/>
<path d="M40.0225 84.0088V64.1899H56.7575V84.0088H52.2544V68.0221H44.4869V84.0088H40.0225Z" fill="white"/>
<path d="M60.6523 91.4409V64.1899H65.2457V67.4673H65.5166C65.7575 66.9856 66.0973 66.4738 66.536 65.9318C66.9747 65.3813 67.5682 64.9125 68.3166 64.5254C69.0649 64.1297 70.0197 63.9319 71.181 63.9319C72.7122 63.9319 74.0928 64.3233 75.3228 65.106C76.5615 65.8802 77.5421 67.0286 78.2647 68.5511C78.9959 70.0651 79.3614 71.9231 79.3614 74.1252C79.3614 76.3015 79.0045 78.1509 78.2905 79.6734C77.5765 81.196 76.6045 82.3572 75.3745 83.1572C74.1444 83.9572 72.7509 84.3572 71.1939 84.3572C70.0585 84.3572 69.1165 84.1679 68.3682 83.7894C67.6198 83.411 67.0177 82.955 66.5618 82.4217C66.1145 81.8798 65.7661 81.368 65.5166 80.8863H65.3231V91.4409H60.6523ZM65.2328 74.0994C65.2328 75.3811 65.4134 76.5036 65.7747 77.467C66.1446 78.4304 66.6736 79.1831 67.3618 79.725C68.0585 80.2583 68.9015 80.525 69.8907 80.525C70.923 80.525 71.7874 80.2497 72.4842 79.6992C73.181 79.1401 73.7057 78.3788 74.0584 77.4154C74.4196 76.4434 74.6003 75.338 74.6003 74.0994C74.6003 72.8693 74.4239 71.7768 74.0713 70.822C73.7186 69.8672 73.1939 69.1188 72.4971 68.5769C71.8004 68.035 70.9316 67.764 69.8907 67.764C68.8929 67.764 68.0456 68.0264 67.3489 68.5511C66.6521 69.0758 66.1231 69.8113 65.7618 70.7575C65.4091 71.7037 65.2328 72.8177 65.2328 74.0994Z" fill="white"/>
<path d="M88.1561 84.4088C86.9002 84.4088 85.769 84.1851 84.7626 83.7378C83.7648 83.2819 82.9734 82.611 82.3885 81.725C81.8121 80.839 81.524 79.7465 81.524 78.4476C81.524 77.3294 81.7304 76.4047 82.1433 75.6735C82.5562 74.9424 83.1196 74.3574 83.8336 73.9187C84.5475 73.48 85.3518 73.1489 86.2464 72.9252C87.1496 72.6929 88.0829 72.5252 89.0464 72.422C90.2076 72.3016 91.1495 72.194 91.8721 72.0994C92.5947 71.9962 93.1194 71.8414 93.4462 71.6349C93.7817 71.4199 93.9495 71.0887 93.9495 70.6414V70.564C93.9495 69.592 93.6613 68.8393 93.085 68.306C92.5086 67.7726 91.6785 67.506 90.5947 67.506C89.4506 67.506 88.5431 67.7554 87.8722 68.2544C87.2098 68.7533 86.7625 69.3425 86.5303 70.022L82.1691 69.4027C82.5132 68.1984 83.0809 67.192 83.8723 66.3834C84.6637 65.5662 85.6314 64.9555 86.7754 64.5512C87.9195 64.1383 89.184 63.9319 90.5689 63.9319C91.5237 63.9319 92.4742 64.0437 93.4204 64.2674C94.3666 64.491 95.2311 64.8609 96.0139 65.377C96.7967 65.8845 97.4246 66.577 97.8977 67.4544C98.3794 68.3318 98.6203 69.4285 98.6203 70.7446V84.0088H94.1301V81.2863H93.9753C93.6914 81.8368 93.2914 82.3529 92.7753 82.8346C92.2678 83.3077 91.6269 83.6905 90.8528 83.983C90.0872 84.2668 89.1883 84.4088 88.1561 84.4088ZM89.3689 80.9766C90.3065 80.9766 91.1194 80.7917 91.8076 80.4218C92.4957 80.0433 93.0247 79.5444 93.3946 78.925C93.7731 78.3057 93.9624 77.6305 93.9624 76.8993V74.5639C93.8161 74.6843 93.5667 74.7961 93.214 74.8993C92.8699 75.0026 92.4828 75.0929 92.0527 75.1703C91.6226 75.2477 91.1968 75.3165 90.7753 75.3767C90.3539 75.437 89.9883 75.4886 89.6786 75.5316C88.9818 75.6262 88.3582 75.781 87.8077 75.9961C87.2572 76.2111 86.8228 76.5122 86.5045 76.8993C86.1862 77.2778 86.0271 77.7681 86.0271 78.3702C86.0271 79.2304 86.341 79.8799 86.969 80.3186C87.5969 80.7573 88.3969 80.9766 89.3689 80.9766Z" fill="white"/>
<path d="M102.409 84.0088V64.1899H110.731C113.079 64.1899 114.933 64.6587 116.292 65.5964C117.66 66.534 118.344 67.8415 118.344 69.5188C118.344 70.6285 117.957 71.536 117.182 72.2413C116.417 72.9381 115.372 73.4069 114.047 73.6478C115.088 73.7338 116 73.9961 116.782 74.4348C117.574 74.8735 118.193 75.4499 118.64 76.1638C119.088 76.8778 119.311 77.6993 119.311 78.6283C119.311 79.7207 119.023 80.6712 118.447 81.4798C117.879 82.2798 117.049 82.9034 115.957 83.3507C114.873 83.7894 113.557 84.0088 112.008 84.0088H102.409ZM106.783 80.3315H112.008C112.869 80.3315 113.544 80.1293 114.034 79.725C114.524 79.3121 114.77 78.753 114.77 78.0476C114.77 77.2305 114.524 76.5896 114.034 76.1251C113.544 75.652 112.869 75.4155 112.008 75.4155H106.783V80.3315ZM106.783 72.3962H110.821C111.458 72.3962 112.004 72.3059 112.46 72.1252C112.916 71.936 113.264 71.6736 113.505 71.3381C113.746 70.9941 113.866 70.5855 113.866 70.1124C113.866 69.4328 113.587 68.8995 113.028 68.5124C112.477 68.1253 111.712 67.9318 110.731 67.9318H106.783V72.3962Z" fill="white"/>
<path d="M78.4302 63.3939V33.341H83.4959V36.9553H83.7947C84.0604 36.4241 84.4351 35.8596 84.9189 35.262C85.4027 34.6549 86.0572 34.1378 86.8826 33.711C87.7079 33.2746 88.7609 33.0564 90.0415 33.0564C91.7301 33.0564 93.2527 33.488 94.6092 34.3513C95.9753 35.2051 97.0567 36.4715 97.8536 38.1506C98.6599 39.8202 99.0631 41.8693 99.0631 44.2978C99.0631 46.6978 98.6694 48.7374 97.882 50.4165C97.0947 52.0956 96.0227 53.3763 94.6662 54.2585C93.3096 55.1407 91.7728 55.5819 90.0558 55.5819C88.8036 55.5819 87.7648 55.3732 86.9395 54.9558C86.1142 54.5384 85.4501 54.0356 84.9473 53.4474C84.454 52.8498 84.0698 52.2853 83.7947 51.7541H83.5813V63.3939H78.4302ZM83.4817 44.2693C83.4817 45.6828 83.6809 46.9208 84.0793 47.9833C84.4872 49.0457 85.0707 49.8758 85.8296 50.4734C86.598 51.0616 87.5276 51.3557 88.6186 51.3557C89.7569 51.3557 90.7103 51.0521 91.4787 50.445C92.2471 49.8284 92.8258 48.9888 93.2147 47.9263C93.6132 46.8544 93.8124 45.6354 93.8124 44.2693C93.8124 42.9128 93.6179 41.708 93.229 40.655C92.84 39.602 92.2614 38.7767 91.493 38.1791C90.7246 37.5814 89.7664 37.2826 88.6186 37.2826C87.5182 37.2826 86.5837 37.5719 85.8153 38.1506C85.0469 38.7293 84.4635 39.5404 84.0651 40.5839C83.6762 41.6274 83.4817 42.8559 83.4817 44.2693Z" fill="#013878"/>
<path d="M108.762 55.6388C107.377 55.6388 106.13 55.3921 105.02 54.8988C103.919 54.3961 103.046 53.6561 102.401 52.679C101.766 51.7019 101.448 50.4972 101.448 49.0647C101.448 47.8315 101.676 46.8117 102.131 46.0053C102.586 45.199 103.208 44.5539 103.995 44.0701C104.782 43.5863 105.669 43.2211 106.656 42.9744C107.652 42.7183 108.681 42.5333 109.744 42.4195C111.025 42.2867 112.063 42.1681 112.86 42.0637C113.657 41.9499 114.236 41.7791 114.596 41.5515C114.966 41.3143 115.151 40.9491 115.151 40.4558V40.3704C115.151 39.2985 114.833 38.4684 114.198 37.8802C113.562 37.2921 112.647 36.998 111.451 36.998C110.19 36.998 109.189 37.2731 108.449 37.8233C107.719 38.3735 107.225 39.0233 106.969 39.7728L102.159 39.0897C102.539 37.7617 103.165 36.6517 104.038 35.76C104.911 34.8588 105.978 34.1853 107.239 33.7394C108.501 33.2841 109.896 33.0564 111.423 33.0564C112.476 33.0564 113.524 33.1797 114.568 33.4264C115.611 33.673 116.565 34.0809 117.428 34.6501C118.291 35.2098 118.984 35.9735 119.505 36.9411C120.037 37.9087 120.302 39.1182 120.302 40.5696V55.1977H115.35V52.1952H115.18C114.867 52.8023 114.425 53.3715 113.856 53.9028C113.297 54.4245 112.59 54.8467 111.736 55.1692C110.892 55.4823 109.9 55.6388 108.762 55.6388ZM110.1 51.8537C111.134 51.8537 112.03 51.6497 112.789 51.2418C113.548 50.8244 114.131 50.2742 114.539 49.5912C114.957 48.9082 115.165 48.1635 115.165 47.3572V44.7816C115.004 44.9144 114.729 45.0377 114.34 45.1516C113.961 45.2654 113.534 45.365 113.059 45.4504C112.585 45.5358 112.115 45.6117 111.651 45.6781C111.186 45.7445 110.783 45.8014 110.441 45.8488C109.673 45.9532 108.985 46.1239 108.378 46.3611C107.771 46.5982 107.292 46.9303 106.941 47.3572C106.59 47.7746 106.414 48.3153 106.414 48.9793C106.414 49.928 106.76 50.6442 107.453 51.128C108.145 51.6118 109.028 51.8537 110.1 51.8537Z" fill="#013878"/>
<path d="M4.91566 43.4703C4.35789 42.3596 4.1153 41.1743 4.16472 39.9203C4.19107 39.2429 4.60174 38.6382 5.23889 38.3361C11.3289 35.4462 27.7015 34.1172 43.0798 32.1441C44.099 32.0132 44.9406 32.1024 45.1455 33.0617L45.5984 35.1802C45.8023 36.1336 44.7051 36.3392 43.718 36.5883C28.7405 40.3647 13.5443 45.2737 6.47598 44.5332C5.79765 44.4623 5.20942 44.0566 4.91566 43.4703Z" fill="white"/>
<path d="M42.7253 38.5072L40.8829 29.9082C40.8572 29.7871 40.9335 29.6703 41.0541 29.6481L43.2434 29.2436C43.3639 29.2213 43.4829 29.3015 43.5089 29.4229L45.3511 38.0217C45.3773 38.1429 45.3007 38.2593 45.1804 38.2819L42.9908 38.6866C42.8703 38.7088 42.7516 38.6285 42.7253 38.5072Z" fill="white"/>
<path d="M61.5379 35.8134L59.6954 27.2145C59.6694 27.0931 59.746 26.9766 59.8666 26.9544L62.0561 26.5498C62.1766 26.5275 62.2954 26.6079 62.3214 26.7293L64.1637 35.3278C64.1897 35.4493 64.1131 35.5657 63.9926 35.588L61.8032 35.9929C61.6827 36.0152 61.5639 35.9348 61.5379 35.8134Z" fill="white"/>
<path d="M47.0585 45.7484L41.0073 18.5192L60.0259 15.1308L66.0773 42.3598L47.0585 45.7484Z" fill="white"/>
<path d="M41.4759 20.0451L40.711 16.6016L59.8054 13.1891L60.5705 16.6325L41.4759 20.0451Z" fill="white"/>
<path d="M41.0654 18.1677L40.6859 16.4555C40.5698 15.9318 40.8607 15.4155 41.3736 15.2352C46.6883 13.366 52.4246 12.3044 58.6413 12.1624C59.1857 12.15 59.6711 12.5222 59.786 13.0401L60.1672 14.7597L41.0654 18.1677Z" fill="white"/>
<path d="M41.1312 21.0567L40.8144 19.6284C40.786 19.5007 40.8695 19.3783 41.0007 19.355L61.0058 15.7813C61.1371 15.7579 61.2664 15.8423 61.2946 15.9698L61.6115 17.398C61.6399 17.5257 61.5564 17.6481 61.4251 17.6715L41.4202 21.245C41.2887 21.2686 41.1594 21.1841 41.1312 21.0567Z" fill="white"/>
<path d="M46.8541 45.9018L47.6183 49.3453L66.7136 45.9364L65.9494 42.4929L46.8541 45.9018Z" fill="white"/>
<path d="M47.2504 47.769L47.6299 49.4811C47.7457 50.0047 48.2348 50.3824 48.7856 50.3728C54.4933 50.275 60.2454 49.287 66.0497 47.2839C66.5581 47.1089 66.8477 46.5979 66.733 46.0806L66.3519 44.3609L47.2504 47.769Z" fill="white"/>
<path d="M46.1555 45.0758L46.4725 46.5041C46.5005 46.6313 46.6298 46.716 46.7614 46.6922L66.7666 43.1198C66.8975 43.0965 66.9809 42.9738 66.9526 42.8463L66.6356 41.4179C66.6076 41.2901 66.478 41.2058 66.3467 41.2293L46.3418 44.8021C46.2106 44.8255 46.1269 44.9479 46.1555 45.0758Z" fill="white"/>
<path d="M32.0139 39.5245C31.4105 37.1137 31.1505 34.5253 31.092 33.4659C22.7953 34.3838 9.30684 36.6755 6.08286 37.8512C3.60288 38.7555 1.61768 39.0878 2.12447 42.3465C2.642 45.6743 5.77536 45.351 6.10641 45.3499C11.0856 45.3344 24.1009 42.1416 32.0139 39.5245Z" fill="#013878"/>
<rect x="78.425" y="55.1918" width="5.16465" height="8.35556" fill="white"/>
</svg>
